HIERARCHY
ROOT hip
{
  OFFSET 37.8121 88.0139 -37.2358
  CHANNELS 6 Xposition Yposition Zposition Zrotation Xrotation Yrotation
  JOINT abdomen
  {
    OFFSET 0 20.6881 -0.73152
    CHANNELS 3 Zrotation Xrotation Yrotation
    JOINT chest
    {
      OFFSET 0 11.7043 -0.48768
      CHANNELS 3 Zrotation Xrotation Yrotation
      JOINT neck
      {
        OFFSET 0 22.1894 -2.19456
        CHANNELS 3 Zrotation Xrotation Yrotation
        JOINT head
        {
          OFFSET -0.24384 7.07133 1.2192
          CHANNELS 3 Zrotation Xrotation Yrotation
          JOINT leftEye
          {
            OFFSET 4.14528 8.04674 8.04672
            CHANNELS 3 Zrotation Xrotation Yrotation
            End Site
            {
              OFFSET 1 0 0
            }
          }
          JOINT rightEye
          {
            OFFSET -3.6576 8.04674 8.04672
            CHANNELS 3 Zrotation Xrotation Yrotation
            End Site
            {
              OFFSET 1 0 0
            }
          }
        }
      }
      JOINT rCollar
      {
        OFFSET -2.68224 19.2634 -4.8768
        CHANNELS 3 Zrotation Xrotation Yrotation
        JOINT rShldr
        {
          OFFSET -8.77824 -1.95073 1.46304
          CHANNELS 3 Zrotation Xrotation Yrotation
          JOINT rForeArm
          {
            OFFSET -28.1742 -1.7115 0.48768
            CHANNELS 3 Zrotation Xrotation Yrotation
            JOINT rHand
            {
              OFFSET -22.5879 0.773209 7.07136
              CHANNELS 3 Zrotation Xrotation Yrotation
              JOINT rThumb1
              {
                OFFSET -1.2192 -0.487915 3.41376
                CHANNELS 3 Zrotation Xrotation Yrotation
                JOINT rThumb2
                {
                  OFFSET -3.37035 -0.52449 3.41376
                  CHANNELS 3 Zrotation Xrotation Yrotation
                  End Site
                  {
                    OFFSET -1.78271 -1.18214 1.43049
                  }
                }
              }
              JOINT rIndex1
              {
                OFFSET -7.75947 0.938293 5.60832
                CHANNELS 3 Zrotation Xrotation Yrotation
                JOINT rIndex2
                {
                  OFFSET -2.54057 -0.884171 1.56538
                  CHANNELS 3 Zrotation Xrotation Yrotation
                  End Site
                  {
                    OFFSET -1.62519 -0.234802 1.16502
                  }
                }
              }
              JOINT rMid1
              {
                OFFSET -8.24714 1.18213 3.41376
                CHANNELS 3 Zrotation Xrotation Yrotation
                JOINT rMid2
                {
                  OFFSET -3.10165 -0.590103 1.0647
                  CHANNELS 3 Zrotation Xrotation Yrotation
                  End Site
                  {
                    OFFSET -2.48547 -0.328903 0.83742
                  }
                }
              }
              JOINT rRing1
              {
                OFFSET -8.82822 0.546677 1.51678
                CHANNELS 3 Zrotation Xrotation Yrotation
                JOINT rRing2
                {
                  OFFSET -2.60934 -0.819778 -0.0198488
                  CHANNELS 3 Zrotation Xrotation Yrotation
                  End Site
                  {
                    OFFSET -2.33842 -0.294052 0.168128
                  }
                }
              }
              JOINT rPinky1
              {
                OFFSET -8.27202 -0.0477905 -0.4584
                CHANNELS 3 Zrotation Xrotation Yrotation
                JOINT rPinky2
                {
                  OFFSET -1.82734 -0.647385 -0.700984
                  CHANNELS 3 Zrotation Xrotation Yrotation
                  End Site
                  {
                    OFFSET -1.69225 -0.51767 -0.607171
                  }
                }
              }
            }
          }
        }
      }
      JOINT lCollar
      {
        OFFSET 2.68224 19.2634 -4.8768
        CHANNELS 3 Zrotation Xrotation Yrotation
        JOINT lShldr
        {
          OFFSET 8.77824 -1.95073 1.46304
          CHANNELS 3 Zrotation Xrotation Yrotation
          JOINT lForeArm
          {
            OFFSET 28.1742 -1.7115 0.48768
            CHANNELS 3 Zrotation Xrotation Yrotation
            JOINT lHand
            {
              OFFSET 22.5879 0.773209 7.07136
              CHANNELS 3 Zrotation Xrotation Yrotation
              JOINT lThumb1
              {
                OFFSET 1.2192 -0.487915 3.41376
                CHANNELS 3 Zrotation Xrotation Yrotation
                JOINT lThumb2
                {
                  OFFSET 3.37035 -0.52449 3.41376
                  CHANNELS 3 Zrotation Xrotation Yrotation
                  End Site
                  {
                    OFFSET 1.78271 -1.18214 1.43049
                  }
                }
              }
              JOINT lIndex1
              {
                OFFSET 7.75947 0.938293 5.60832
                CHANNELS 3 Zrotation Xrotation Yrotation
                JOINT lIndex2
                {
                  OFFSET 2.54057 -0.884171 1.56538
                  CHANNELS 3 Zrotation Xrotation Yrotation
                  End Site
                  {
                    OFFSET 1.62519 -0.234802 1.16502
                  }
                }
              }
              JOINT lMid1
              {
                OFFSET 8.24714 1.18213 3.41376
                CHANNELS 3 Zrotation Xrotation Yrotation
                JOINT lMid2
                {
                  OFFSET 3.10165 -0.590103 1.0647
                  CHANNELS 3 Zrotation Xrotation Yrotation
                  End Site
                  {
                    OFFSET 2.48547 -0.328903 0.83742
                  }
                }
              }
              JOINT lRing1
              {
                OFFSET 8.82822 0.546677 1.51678
                CHANNELS 3 Zrotation Xrotation Yrotation
                JOINT lRing2
                {
                  OFFSET 2.60934 -0.819778 -0.0198488
                  CHANNELS 3 Zrotation Xrotation Yrotation
                  End Site
                  {
                    OFFSET 2.33842 -0.294052 0.168128
                  }
                }
              }
              JOINT lPinky1
              {
                OFFSET 8.27202 -0.0477905 -0.4584
                CHANNELS 3 Zrotation Xrotation Yrotation
                JOINT lPinky2
                {
                  OFFSET 1.82734 -0.647385 -0.700984
                  CHANNELS 3 Zrotation Xrotation Yrotation
                  End Site
                  {
                    OFFSET 1.69225 -0.51767 -0.607171
                  }
                }
              }
            }
          }
        }
      }
    }
  }
  JOINT rButtock
  {
    OFFSET -8.77824 4.35084 1.2192
    CHANNELS 3 Zrotation Xrotation Yrotation
    JOINT rThigh
    {
      OFFSET 0 -1.70687 -2.19456
      CHANNELS 3 Zrotation Xrotation Yrotation
      JOINT rShin
      {
        OFFSET 0 -36.8199 0.73152
        CHANNELS 3 Zrotation Xrotation Yrotation
        JOINT rFoot
        {
          OFFSET 0.73152 -45.1104 -5.12064
          CHANNELS 3 Zrotation Xrotation Yrotation
          End Site
          {
            OFFSET -1.1221 -3.69964 12.103
          }
        }
      }
    }
  }
  JOINT lButtock
  {
    OFFSET 8.77824 4.35084 1.2192
    CHANNELS 3 Zrotation Xrotation Yrotation
    JOINT lThigh
    {
      OFFSET 0 -1.70687 -2.19456
      CHANNELS 3 Zrotation Xrotation Yrotation
      JOINT lShin
      {
        OFFSET 0 -36.8199 0.73152
        CHANNELS 3 Zrotation Xrotation Yrotation
        JOINT lFoot
        {
          OFFSET -0.73152 -45.1104 -5.12064
          CHANNELS 3 Zrotation Xrotation Yrotation
          End Site
          {
            OFFSET 1.1221 -3.69964 12.103
          }
        }
      }
    }
  }
}
MOTION
Frames:	4
Frame Time:	0.00833333
29.0059 81.5677 62.0364 2.27082 -72.2504 146.337 -19.8013 32.1754 4.26399 7.78427 -11.0483 0.068315 -11.4237 -9.52519 -2.70218 27.5828 -16.7087 4.74372 -0 0 0 -0 0 0 3.31368e-013 4.92986e-014 -7.32074e-013 -6.97865 -47.518 0.450189 -17.6602 -10.3259 33.2623 -0.00372561 1.74257 0.244978 -2.72576e-009 8.7899e-009 -2.99123e-009 -4.71174e-009 1.51949e-008 -5.16877e-009 -2.72576e-009 8.7899e-009 -2.99124e-009 7.73091 5.47488 0.417314 -2.72576e-009 8.78991e-009 -2.99124e-009 2.90554 0.965183 0.102902 -2.72575e-009 8.78991e-009 -2.99123e-009 10.2786 0.731801 0.0259123 -2.72576e-009 8.7899e-009 -2.99123e-009 2.22167 -0.733487 -0.20892 3.30954e-013 4.92963e-014 -7.32422e-013 -27.345 -55.7937 -50.9583 9.23831 -3.69119 -16.3807 2.00082 -36.7359 6.021 -2.4316e-009 -2.48072e-009 2.13164e-009 -4.25253e-009 -4.33927e-009 3.62129e-009 -2.4316e-009 -2.4807e-009 2.13165e-009 -7.73091 5.47488 -0.417314 -2.4316e-009 -2.4807e-009 2.13164e-009 -2.90554 0.965183 -0.102902 -2.43161e-009 -2.4807e-009 2.13164e-009 -10.2786 0.731801 -0.0259123 -2.4316e-009 -2.48072e-009 2.13163e-009 -2.22167 -0.733487 0.20892 -2.03217e-016 0 -3.88251e-019 -17.0818 -52.1272 -11.1408 0.56868 34.5875 2.83758 0.63338 -10.0913 2.26091 2.03217e-016 0 3.88251e-019 72.5254 -56.2059 44.9312 -0.567929 39.8754 -0.249667 176.983 19.5248 8.76189 
30.1078 83.1091 63.7243 -0.173536 -70.9545 146.262 -18.9362 32.8144 4.25192 7.85235 -10.5883 0.0455387 -12.3791 -9.0314 -3.48329 29.1586 -16.8243 3.71936 -0 0 0 -0 0 0 2.48795e-013 5.24876e-014 -5.65503e-013 -2.43403 -47.089 2.28819 -17.7783 -10.4476 33.5314 0.00104258 1.10023 0.154631 -1.82096e-009 1.23048e-008 -2.15214e-009 -3.14812e-009 2.12636e-008 -3.71445e-009 -1.82095e-009 1.23048e-008 -2.15215e-009 7.73091 5.47488 0.417314 -1.82096e-009 1.23048e-008 -2.15215e-009 2.90554 0.965183 0.102902 -1.82095e-009 1.23048e-008 -2.15214e-009 10.2786 0.731801 0.0259123 -1.82096e-009 1.23048e-008 -2.15214e-009 2.22167 -0.733487 -0.20892 2.48409e-013 5.24824e-014 -5.65841e-013 -24.9348 -55.0658 -49.9993 9.61688 -3.90839 -17.0905 2.13022 -37.6425 6.22721 -2.25569e-009 -1.58771e-009 1.97262e-009 -3.94146e-009 -2.75797e-009 3.35691e-009 -2.25569e-009 -1.58768e-009 1.97263e-009 -7.73091 5.47488 -0.417314 -2.25569e-009 -1.58768e-009 1.97262e-009 -2.90554 0.965183 -0.102902 -2.2557e-009 -1.58768e-009 1.97262e-009 -10.2786 0.731801 -0.0259123 -2.25568e-009 -1.5877e-009 1.97261e-009 -2.22167 -0.733487 0.20892 -2.03217e-016 0 -3.88251e-019 -19.3005 -55.641 -13.4008 0.557614 35.6304 2.74183 0.492564 -10.2861 1.81154 2.03217e-016 0 3.88251e-019 68.2296 -55.6036 40.9585 -0.83864 34.4347 -0.256752 177.51 18.5723 7.65011 
31.4356 84.7534 65.2788 -1.77657 -70.0275 147.513 -17.8406 33.4879 4.41315 7.85139 -10.1603 0.082021 -13.4368 -8.57188 -4.38881 30.7632 -16.9289 2.46735 -0 0 0 -0 0 0 7.07693e-014 -5.34517e-014 3.2141e-014 1.94306 -47.1076 3.72835 -17.8866 -10.5594 33.7814 0.00405255 -0.00303215 -0.000428088 1.80707e-009 5.52086e-009 6.44098e-010 3.12192e-009 9.53554e-009 1.12271e-009 1.80708e-009 5.52086e-009 6.4409e-010 7.73091 5.47488 0.417314 1.80707e-009 5.52086e-009 6.44089e-010 2.90554 0.965183 0.102902 1.80708e-009 5.52086e-009 6.44095e-010 10.2786 0.731801 0.0259123 1.80707e-009 5.52086e-009 6.44095e-010 2.22167 -0.733487 -0.20892 7.04564e-014 -5.34591e-014 3.18335e-014 -22.3462 -53.9515 -49.6564 9.97482 -4.11786 -17.7686 2.19366 -38.0971 6.33048 -7.59186e-010 -9.86922e-012 3.8273e-010 -1.3214e-009 3.67752e-011 6.53543e-010 -7.59189e-010 -9.85223e-012 3.82741e-010 -7.73091 5.47488 -0.417314 -7.59184e-010 -9.85012e-012 3.82729e-010 -2.90554 0.965183 -0.102902 -7.59197e-010 -9.8499e-012 3.82729e-010 -10.2786 0.731801 -0.0259123 -7.59182e-010 -9.86367e-012 3.82717e-010 -2.22167 -0.733487 0.20892 -2.03217e-016 0 -3.88251e-019 -21.2436 -58.9208 -15.0538 0.517189 36.4457 2.64717 0.340641 -10.7512 1.08232 2.03217e-016 0 3.88251e-019 63.4229 -54.3829 35.8354 -0.811509 27.1186 0.362996 177.715 16.0717 7.62141 
32.8889 86.3319 66.7502 -2.93835 -69.1401 149.337 -16.6024 34.0841 4.64946 7.75408 -9.77093 0.157028 -14.3857 -8.05371 -5.29379 32.1854 -17.0211 1.09868 -0 0 0 -0 0 0 -1.13043e-013 -1.81764e-013 6.93154e-013 6.21192 -47.1764 5.12755 -17.925 -10.6002 33.8682 0.000950886 -1.09154 -0.153412 5.80104e-009 -4.29403e-009 3.69509e-009 1.00244e-008 -7.42913e-009 6.39929e-009 5.80105e-009 -4.29404e-009 3.69508e-009 7.73091 5.47488 0.417314 5.80103e-009 -4.29403e-009 3.69508e-009 2.90554 0.965183 0.102902 5.80105e-009 -4.29404e-009 3.69509e-009 10.2786 0.731801 0.0259123 5.80104e-009 -4.29404e-009 3.69508e-009 2.22167 -0.733487 -0.20892 -1.1327e-013 -1.81773e-013 6.92881e-013 -19.7283 -52.7172 -49.4562 10.3693 -4.36073 -18.5103 2.2326 -38.4006 6.39766 1.00247e-009 1.5086e-009 -1.51781e-009 1.76218e-009 2.72818e-009 -2.58132e-009 1.00247e-009 1.50861e-009 -1.5178e-009 -7.73091 5.47488 -0.417314 1.00247e-009 1.50862e-009 -1.51781e-009 -2.90554 0.965183 -0.102902 1.00246e-009 1.50862e-009 -1.51781e-009 -10.2786 0.731801 -0.0259123 1.00247e-009 1.50861e-009 -1.51783e-009 -2.22167 -0.733487 0.20892 -2.03217e-016 0 -3.88251e-019 -22.6279 -61.9305 -15.9202 0.452544 37.3761 2.55696 0.178191 -11.4389 0.275947 2.03217e-016 0 3.88251e-019 58.9305 -52.8483 31.1033 -0.469238 20.0546 1.16106 177.763 13.3783 8.09279 
